{
 "cells": [
  {
   "cell_type": "code",
   "execution_count": null,
   "id": "bb810135-36f3-403b-9eb2-4accc80d1433",
   "metadata": {},
   "outputs": [
    {
     "name": "stderr",
     "output_type": "stream",
     "text": [
      "ffmpeg version 4.4.2-0ubuntu0.22.04.1 Copyright (c) 2000-2021 the FFmpeg developers\n",
      "  built with gcc 11 (Ubuntu 11.2.0-19ubuntu1)\n",
      "  configuration: --prefix=/usr --extra-version=0ubuntu0.22.04.1 --toolchain=hardened --libdir=/usr/lib/x86_64-linux-gnu --incdir=/usr/include/x86_64-linux-gnu --arch=amd64 --enable-gpl --disable-stripping --enable-gnutls --enable-ladspa --enable-libaom --enable-libass --enable-libbluray --enable-libbs2b --enable-libcaca --enable-libcdio --enable-libcodec2 --enable-libdav1d --enable-libflite --enable-libfontconfig --enable-libfreetype --enable-libfribidi --enable-libgme --enable-libgsm --enable-libjack --enable-libmp3lame --enable-libmysofa --enable-libopenjpeg --enable-libopenmpt --enable-libopus --enable-libpulse --enable-librabbitmq --enable-librubberband --enable-libshine --enable-libsnappy --enable-libsoxr --enable-libspeex --enable-libsrt --enable-libssh --enable-libtheora --enable-libtwolame --enable-libvidstab --enable-libvorbis --enable-libvpx --enable-libwebp --enable-libx265 --enable-libxml2 --enable-libxvid --enable-libzimg --enable-libzmq --enable-libzvbi --enable-lv2 --enable-omx --enable-openal --enable-opencl --enable-opengl --enable-sdl2 --enable-pocketsphinx --enable-librsvg --enable-libmfx --enable-libdc1394 --enable-libdrm --enable-libiec61883 --enable-chromaprint --enable-frei0r --enable-libx264 --enable-shared\n",
      "  libavutil      56. 70.100 / 56. 70.100\n",
      "  libavcodec     58.134.100 / 58.134.100\n",
      "  libavformat    58. 76.100 / 58. 76.100\n",
      "  libavdevice    58. 13.100 / 58. 13.100\n",
      "  libavfilter     7.110.100 /  7.110.100\n",
      "  libswscale      5.  9.100 /  5.  9.100\n",
      "  libswresample   3.  9.100 /  3.  9.100\n",
      "  libpostproc    55.  9.100 / 55.  9.100\n",
      "[libdav1d @ 0x56e9c1e65540] libdav1d 0.9.2\n",
      "Input #0, matroska,webm, from 'video/2.webm':\n",
      "  Metadata:\n",
      "    COMPATIBLE_BRANDS: iso6av01mp41\n",
      "    MAJOR_BRAND     : dash\n",
      "    MINOR_VERSION   : 0\n",
      "    ENCODER         : Lavf58.76.100\n",
      "  Duration: 01:27:06.02, start: -0.007000, bitrate: 1014 kb/s\n",
      "  Stream #0:0: Video: av1 (Main), yuv420p(tv, bt709), 1280x720 [SAR 1:1 DAR 16:9], 29.97 fps, 29.97 tbr, 1k tbn, 1k tbc (default)\n",
      "    Metadata:\n",
      "      HANDLER_NAME    : ISO Media file produced by Google Inc.\n",
      "      VENDOR_ID       : [0][0][0][0]\n",
      "      DURATION        : 01:27:05.987000000\n",
      "  Stream #0:1(eng): Audio: opus, 48000 Hz, stereo, fltp (default)\n",
      "    Metadata:\n",
      "      DURATION        : 01:27:06.021000000\n",
      "[libdav1d @ 0x56e9c1ebaf80] libdav1d 0.9.2\n",
      "Stream mapping:\n",
      "  Stream #0:0 -> #0:0 (av1 (libdav1d) -> h264 (libx264))\n",
      "  Stream #0:1 -> #0:1 (opus (native) -> aac (native))\n",
      "Press [q] to stop, [?] for help\n",
      "[libx264 @ 0x56e9c1ea6f00] using SAR=1/1\n",
      "[libx264 @ 0x56e9c1ea6f00] using cpu capabilities: MMX2 SSE2Fast SSSE3 SSE4.2 AVX FMA3 BMI2 AVX2\n",
      "[libx264 @ 0x56e9c1ea6f00] profile High, level 3.1, 4:2:0, 8-bit\n",
      "[libx264 @ 0x56e9c1ea6f00] 264 - core 163 r3060 5db6aa6 - H.264/MPEG-4 AVC codec - Copyleft 2003-2021 - http://www.videolan.org/x264.html - options: cabac=1 ref=3 deblock=1:0:0 analyse=0x3:0x113 me=hex subme=7 psy=1 psy_rd=1.00:0.00 mixed_ref=1 me_range=16 chroma_me=1 trellis=1 8x8dct=1 cqm=0 deadzone=21,11 fast_pskip=1 chroma_qp_offset=-2 threads=22 lookahead_threads=3 sliced_threads=0 nr=0 decimate=1 interlaced=0 bluray_compat=0 constrained_intra=0 bframes=3 b_pyramid=2 b_adapt=1 b_bias=0 direct=1 weightb=1 open_gop=0 weightp=2 keyint=250 keyint_min=25 scenecut=40 intra_refresh=0 rc_lookahead=40 rc=crf mbtree=1 crf=23.0 qcomp=0.60 qpmin=0 qpmax=69 qpstep=4 ip_ratio=1.40 aq=1:1.00\n",
      "Output #0, mp4, to 'video/3.mp4':\n",
      "  Metadata:\n",
      "    COMPATIBLE_BRANDS: iso6av01mp41\n",
      "    MAJOR_BRAND     : dash\n",
      "    MINOR_VERSION   : 0\n",
      "    encoder         : Lavf58.76.100\n",
      "  Stream #0:0: Video: h264 (avc1 / 0x31637661), yuv420p(tv, bt709, progressive), 1280x720 [SAR 1:1 DAR 16:9], q=2-31, 29.97 fps, 30k tbn (default)\n",
      "    Metadata:\n",
      "      HANDLER_NAME    : ISO Media file produced by Google Inc.\n",
      "      VENDOR_ID       : [0][0][0][0]\n",
      "      DURATION        : 01:27:05.987000000\n",
      "      encoder         : Lavc58.134.100 libx264\n",
      "    Side data:\n",
      "      cpb: bitrate max/min/avg: 0/0/0 buffer size: 0 vbv_delay: N/A\n",
      "  Stream #0:1(eng): Audio: aac (LC) (mp4a / 0x6134706D), 48000 Hz, stereo, fltp, 128 kb/s (default)\n",
      "    Metadata:\n",
      "      DURATION        : 01:27:06.021000000\n",
      "      encoder         : Lavc58.134.100 aac\n",
      "frame=40818 fps=349 q=-1.0 Lsize=  443323kB time=00:22:42.03 bitrate=2666.4kbits/s speed=11.6x    \n",
      "video:420513kB audio:21350kB subtitle:0kB other streams:0kB global headers:0kB muxing overhead: 0.330363%\n",
      "[libx264 @ 0x56e9c1ea6f00] frame I:165   Avg QP:20.32  size:135434\n",
      "[libx264 @ 0x56e9c1ea6f00] frame P:10943 Avg QP:23.48  size: 24353\n",
      "[libx264 @ 0x56e9c1ea6f00] frame B:29710 Avg QP:29.13  size:  4772\n",
      "[libx264 @ 0x56e9c1ea6f00] consecutive B-frames:  1.3%  3.6%  4.1% 91.0%\n",
      "[libx264 @ 0x56e9c1ea6f00] mb I  I16..4:  5.1% 46.0% 48.9%\n",
      "[libx264 @ 0x56e9c1ea6f00] mb P  I16..4:  1.9%  6.1%  1.7%  P16..4: 31.0% 17.3%  9.8%  0.0%  0.0%    skip:32.1%\n",
      "[libx264 @ 0x56e9c1ea6f00] mb B  I16..4:  0.1%  0.4%  0.1%  B16..8: 32.4%  4.6%  1.0%  direct: 1.1%  skip:60.3%  L0:37.3% L1:47.3% BI:15.4%\n",
      "[libx264 @ 0x56e9c1ea6f00] 8x8 transform intra:61.1% inter:68.9%\n",
      "[libx264 @ 0x56e9c1ea6f00] coded y,uvDC,uvAC intra: 61.7% 28.4% 6.6% inter: 12.1% 3.9% 0.2%\n",
      "[libx264 @ 0x56e9c1ea6f00] i16 v,h,dc,p: 24% 40%  7% 29%\n",
      "[libx264 @ 0x56e9c1ea6f00] i8 v,h,dc,ddl,ddr,vr,hd,vl,hu: 23% 22% 19%  4%  6%  6%  7%  6%  7%\n",
      "[libx264 @ 0x56e9c1ea6f00] i4 v,h,dc,ddl,ddr,vr,hd,vl,hu: 29% 23% 12%  4%  7%  6%  8%  5%  6%\n",
      "[libx264 @ 0x56e9c1ea6f00] i8c dc,h,v,p: 70% 15% 13%  1%\n",
      "[libx264 @ 0x56e9c1ea6f00] Weighted P-Frames: Y:7.5% UV:1.9%\n",
      "[libx264 @ 0x56e9c1ea6f00] ref P L0: 61.6% 21.4% 12.2%  4.7%  0.2%\n",
      "[libx264 @ 0x56e9c1ea6f00] ref B L0: 92.6%  5.8%  1.6%\n",
      "[libx264 @ 0x56e9c1ea6f00] ref B L1: 96.4%  3.6%\n",
      "[libx264 @ 0x56e9c1ea6f00] kb/s:2529.32\n",
      "[aac @ 0x56e9c1efb340] Qavg: 242.090\n",
      "Exiting normally, received signal 2.\n"
     ]
    },
    {
     "ename": "KeyboardInterrupt",
     "evalue": "",
     "output_type": "error",
     "traceback": [
      "\u001b[0;31m---------------------------------------------------------------------------\u001b[0m",
      "\u001b[0;31mKeyboardInterrupt\u001b[0m                         Traceback (most recent call last)",
      "Cell \u001b[0;32mIn[1], line 22\u001b[0m\n\u001b[1;32m     19\u001b[0m         \u001b[38;5;28mprint\u001b[39m(\u001b[38;5;124mf\u001b[39m\u001b[38;5;124m\"\u001b[39m\u001b[38;5;124mError during conversion: \u001b[39m\u001b[38;5;132;01m{\u001b[39;00me\u001b[38;5;132;01m}\u001b[39;00m\u001b[38;5;124m\"\u001b[39m)\n\u001b[1;32m     21\u001b[0m \u001b[38;5;66;03m# Usage\u001b[39;00m\n\u001b[0;32m---> 22\u001b[0m \u001b[43mconvert_webm_to_mp4\u001b[49m\u001b[43m(\u001b[49m\u001b[38;5;124;43m'\u001b[39;49m\u001b[38;5;124;43mvideo/2.webm\u001b[39;49m\u001b[38;5;124;43m'\u001b[39;49m\u001b[43m,\u001b[49m\u001b[43m \u001b[49m\u001b[38;5;124;43m'\u001b[39;49m\u001b[38;5;124;43mvideo/3.mp4\u001b[39;49m\u001b[38;5;124;43m'\u001b[39;49m\u001b[43m)\u001b[49m\n",
      "Cell \u001b[0;32mIn[1], line 16\u001b[0m, in \u001b[0;36mconvert_webm_to_mp4\u001b[0;34m(input_file, output_file)\u001b[0m\n\u001b[1;32m      4\u001b[0m command \u001b[38;5;241m=\u001b[39m [\n\u001b[1;32m      5\u001b[0m     \u001b[38;5;124m'\u001b[39m\u001b[38;5;124mffmpeg\u001b[39m\u001b[38;5;124m'\u001b[39m,\n\u001b[1;32m      6\u001b[0m     \u001b[38;5;124m'\u001b[39m\u001b[38;5;124m-i\u001b[39m\u001b[38;5;124m'\u001b[39m, input_file,         \u001b[38;5;66;03m# Input WebM\u001b[39;00m\n\u001b[0;32m   (...)\u001b[0m\n\u001b[1;32m     12\u001b[0m     output_file\n\u001b[1;32m     13\u001b[0m ]\n\u001b[1;32m     15\u001b[0m \u001b[38;5;28;01mtry\u001b[39;00m:\n\u001b[0;32m---> 16\u001b[0m     \u001b[43msubprocess\u001b[49m\u001b[38;5;241;43m.\u001b[39;49m\u001b[43mrun\u001b[49m\u001b[43m(\u001b[49m\u001b[43mcommand\u001b[49m\u001b[43m,\u001b[49m\u001b[43m \u001b[49m\u001b[43mcheck\u001b[49m\u001b[38;5;241;43m=\u001b[39;49m\u001b[38;5;28;43;01mTrue\u001b[39;49;00m\u001b[43m)\u001b[49m\n\u001b[1;32m     17\u001b[0m     \u001b[38;5;28mprint\u001b[39m(\u001b[38;5;124mf\u001b[39m\u001b[38;5;124m\"\u001b[39m\u001b[38;5;124mConversion successful: \u001b[39m\u001b[38;5;132;01m{\u001b[39;00moutput_file\u001b[38;5;132;01m}\u001b[39;00m\u001b[38;5;124m\"\u001b[39m)\n\u001b[1;32m     18\u001b[0m \u001b[38;5;28;01mexcept\u001b[39;00m subprocess\u001b[38;5;241m.\u001b[39mCalledProcessError \u001b[38;5;28;01mas\u001b[39;00m e:\n",
      "File \u001b[0;32m~/miniconda3/envs/tf/lib/python3.10/subprocess.py:505\u001b[0m, in \u001b[0;36mrun\u001b[0;34m(input, capture_output, timeout, check, *popenargs, **kwargs)\u001b[0m\n\u001b[1;32m    503\u001b[0m \u001b[38;5;28;01mwith\u001b[39;00m Popen(\u001b[38;5;241m*\u001b[39mpopenargs, \u001b[38;5;241m*\u001b[39m\u001b[38;5;241m*\u001b[39mkwargs) \u001b[38;5;28;01mas\u001b[39;00m process:\n\u001b[1;32m    504\u001b[0m     \u001b[38;5;28;01mtry\u001b[39;00m:\n\u001b[0;32m--> 505\u001b[0m         stdout, stderr \u001b[38;5;241m=\u001b[39m \u001b[43mprocess\u001b[49m\u001b[38;5;241;43m.\u001b[39;49m\u001b[43mcommunicate\u001b[49m\u001b[43m(\u001b[49m\u001b[38;5;28;43minput\u001b[39;49m\u001b[43m,\u001b[49m\u001b[43m \u001b[49m\u001b[43mtimeout\u001b[49m\u001b[38;5;241;43m=\u001b[39;49m\u001b[43mtimeout\u001b[49m\u001b[43m)\u001b[49m\n\u001b[1;32m    506\u001b[0m     \u001b[38;5;28;01mexcept\u001b[39;00m TimeoutExpired \u001b[38;5;28;01mas\u001b[39;00m exc:\n\u001b[1;32m    507\u001b[0m         process\u001b[38;5;241m.\u001b[39mkill()\n",
      "File \u001b[0;32m~/miniconda3/envs/tf/lib/python3.10/subprocess.py:1146\u001b[0m, in \u001b[0;36mPopen.communicate\u001b[0;34m(self, input, timeout)\u001b[0m\n\u001b[1;32m   1144\u001b[0m         stderr \u001b[38;5;241m=\u001b[39m \u001b[38;5;28mself\u001b[39m\u001b[38;5;241m.\u001b[39mstderr\u001b[38;5;241m.\u001b[39mread()\n\u001b[1;32m   1145\u001b[0m         \u001b[38;5;28mself\u001b[39m\u001b[38;5;241m.\u001b[39mstderr\u001b[38;5;241m.\u001b[39mclose()\n\u001b[0;32m-> 1146\u001b[0m     \u001b[38;5;28;43mself\u001b[39;49m\u001b[38;5;241;43m.\u001b[39;49m\u001b[43mwait\u001b[49m\u001b[43m(\u001b[49m\u001b[43m)\u001b[49m\n\u001b[1;32m   1147\u001b[0m \u001b[38;5;28;01melse\u001b[39;00m:\n\u001b[1;32m   1148\u001b[0m     \u001b[38;5;28;01mif\u001b[39;00m timeout \u001b[38;5;129;01mis\u001b[39;00m \u001b[38;5;129;01mnot\u001b[39;00m \u001b[38;5;28;01mNone\u001b[39;00m:\n",
      "File \u001b[0;32m~/miniconda3/envs/tf/lib/python3.10/subprocess.py:1209\u001b[0m, in \u001b[0;36mPopen.wait\u001b[0;34m(self, timeout)\u001b[0m\n\u001b[1;32m   1207\u001b[0m     endtime \u001b[38;5;241m=\u001b[39m _time() \u001b[38;5;241m+\u001b[39m timeout\n\u001b[1;32m   1208\u001b[0m \u001b[38;5;28;01mtry\u001b[39;00m:\n\u001b[0;32m-> 1209\u001b[0m     \u001b[38;5;28;01mreturn\u001b[39;00m \u001b[38;5;28;43mself\u001b[39;49m\u001b[38;5;241;43m.\u001b[39;49m\u001b[43m_wait\u001b[49m\u001b[43m(\u001b[49m\u001b[43mtimeout\u001b[49m\u001b[38;5;241;43m=\u001b[39;49m\u001b[43mtimeout\u001b[49m\u001b[43m)\u001b[49m\n\u001b[1;32m   1210\u001b[0m \u001b[38;5;28;01mexcept\u001b[39;00m \u001b[38;5;167;01mKeyboardInterrupt\u001b[39;00m:\n\u001b[1;32m   1211\u001b[0m     \u001b[38;5;66;03m# https://bugs.python.org/issue25942\u001b[39;00m\n\u001b[1;32m   1212\u001b[0m     \u001b[38;5;66;03m# The first keyboard interrupt waits briefly for the child to\u001b[39;00m\n\u001b[1;32m   1213\u001b[0m     \u001b[38;5;66;03m# exit under the common assumption that it also received the ^C\u001b[39;00m\n\u001b[1;32m   1214\u001b[0m     \u001b[38;5;66;03m# generated SIGINT and will exit rapidly.\u001b[39;00m\n\u001b[1;32m   1215\u001b[0m     \u001b[38;5;28;01mif\u001b[39;00m timeout \u001b[38;5;129;01mis\u001b[39;00m \u001b[38;5;129;01mnot\u001b[39;00m \u001b[38;5;28;01mNone\u001b[39;00m:\n",
      "File \u001b[0;32m~/miniconda3/envs/tf/lib/python3.10/subprocess.py:1959\u001b[0m, in \u001b[0;36mPopen._wait\u001b[0;34m(self, timeout)\u001b[0m\n\u001b[1;32m   1957\u001b[0m \u001b[38;5;28;01mif\u001b[39;00m \u001b[38;5;28mself\u001b[39m\u001b[38;5;241m.\u001b[39mreturncode \u001b[38;5;129;01mis\u001b[39;00m \u001b[38;5;129;01mnot\u001b[39;00m \u001b[38;5;28;01mNone\u001b[39;00m:\n\u001b[1;32m   1958\u001b[0m     \u001b[38;5;28;01mbreak\u001b[39;00m  \u001b[38;5;66;03m# Another thread waited.\u001b[39;00m\n\u001b[0;32m-> 1959\u001b[0m (pid, sts) \u001b[38;5;241m=\u001b[39m \u001b[38;5;28;43mself\u001b[39;49m\u001b[38;5;241;43m.\u001b[39;49m\u001b[43m_try_wait\u001b[49m\u001b[43m(\u001b[49m\u001b[38;5;241;43m0\u001b[39;49m\u001b[43m)\u001b[49m\n\u001b[1;32m   1960\u001b[0m \u001b[38;5;66;03m# Check the pid and loop as waitpid has been known to\u001b[39;00m\n\u001b[1;32m   1961\u001b[0m \u001b[38;5;66;03m# return 0 even without WNOHANG in odd situations.\u001b[39;00m\n\u001b[1;32m   1962\u001b[0m \u001b[38;5;66;03m# http://bugs.python.org/issue14396.\u001b[39;00m\n\u001b[1;32m   1963\u001b[0m \u001b[38;5;28;01mif\u001b[39;00m pid \u001b[38;5;241m==\u001b[39m \u001b[38;5;28mself\u001b[39m\u001b[38;5;241m.\u001b[39mpid:\n",
      "File \u001b[0;32m~/miniconda3/envs/tf/lib/python3.10/subprocess.py:1917\u001b[0m, in \u001b[0;36mPopen._try_wait\u001b[0;34m(self, wait_flags)\u001b[0m\n\u001b[1;32m   1915\u001b[0m \u001b[38;5;250m\u001b[39m\u001b[38;5;124;03m\"\"\"All callers to this function MUST hold self._waitpid_lock.\"\"\"\u001b[39;00m\n\u001b[1;32m   1916\u001b[0m \u001b[38;5;28;01mtry\u001b[39;00m:\n\u001b[0;32m-> 1917\u001b[0m     (pid, sts) \u001b[38;5;241m=\u001b[39m \u001b[43mos\u001b[49m\u001b[38;5;241;43m.\u001b[39;49m\u001b[43mwaitpid\u001b[49m\u001b[43m(\u001b[49m\u001b[38;5;28;43mself\u001b[39;49m\u001b[38;5;241;43m.\u001b[39;49m\u001b[43mpid\u001b[49m\u001b[43m,\u001b[49m\u001b[43m \u001b[49m\u001b[43mwait_flags\u001b[49m\u001b[43m)\u001b[49m\n\u001b[1;32m   1918\u001b[0m \u001b[38;5;28;01mexcept\u001b[39;00m \u001b[38;5;167;01mChildProcessError\u001b[39;00m:\n\u001b[1;32m   1919\u001b[0m     \u001b[38;5;66;03m# This happens if SIGCLD is set to be ignored or waiting\u001b[39;00m\n\u001b[1;32m   1920\u001b[0m     \u001b[38;5;66;03m# for child processes has otherwise been disabled for our\u001b[39;00m\n\u001b[1;32m   1921\u001b[0m     \u001b[38;5;66;03m# process.  This child is dead, we can't get the status.\u001b[39;00m\n\u001b[1;32m   1922\u001b[0m     pid \u001b[38;5;241m=\u001b[39m \u001b[38;5;28mself\u001b[39m\u001b[38;5;241m.\u001b[39mpid\n",
      "\u001b[0;31mKeyboardInterrupt\u001b[0m: "
     ]
    }
   ],
   "source": [
    "import subprocess\n",
    "\n",
    "def convert_webm_to_mp4(input_file, output_file):\n",
    "    command = [\n",
    "        'ffmpeg',\n",
    "        '-i', input_file,         # Input WebM\n",
    "        '-c:v', 'libx264',        # Convert to H.264 (Highly compatible)\n",
    "        '-crf', '23',             # Quality setting (18-28 is good, lower is better)\n",
    "        '-preset', 'medium',      # Encoding speed vs compression\n",
    "        '-c:a', 'aac',            # Convert audio to AAC\n",
    "        '-b:a', '128k', \n",
    "        output_file\n",
    "    ]\n",
    "    \n",
    "    try:\n",
    "        subprocess.run(command, check=True)\n",
    "        print(f\"Conversion successful: {output_file}\")\n",
    "    except subprocess.CalledProcessError as e:\n",
    "        print(f\"Error during conversion: {e}\")\n",
    "\n",
    "# Usage\n",
    "convert_webm_to_mp4('video/2.webm', 'video/3.mp4')"
   ]
  },
  {
   "cell_type": "code",
   "execution_count": null,
   "id": "48f37051-290b-4f6a-b795-bd539ad230d2",
   "metadata": {},
   "outputs": [
    {
     "name": "stdout",
     "output_type": "stream",
     "text": [
      "Starting GPU-accelerated conversion...\n"
     ]
    },
    {
     "name": "stderr",
     "output_type": "stream",
     "text": [
      "ffmpeg version 4.4.2-0ubuntu0.22.04.1 Copyright (c) 2000-2021 the FFmpeg developers\n",
      "  built with gcc 11 (Ubuntu 11.2.0-19ubuntu1)\n",
      "  configuration: --prefix=/usr --extra-version=0ubuntu0.22.04.1 --toolchain=hardened --libdir=/usr/lib/x86_64-linux-gnu --incdir=/usr/include/x86_64-linux-gnu --arch=amd64 --enable-gpl --disable-stripping --enable-gnutls --enable-ladspa --enable-libaom --enable-libass --enable-libbluray --enable-libbs2b --enable-libcaca --enable-libcdio --enable-libcodec2 --enable-libdav1d --enable-libflite --enable-libfontconfig --enable-libfreetype --enable-libfribidi --enable-libgme --enable-libgsm --enable-libjack --enable-libmp3lame --enable-libmysofa --enable-libopenjpeg --enable-libopenmpt --enable-libopus --enable-libpulse --enable-librabbitmq --enable-librubberband --enable-libshine --enable-libsnappy --enable-libsoxr --enable-libspeex --enable-libsrt --enable-libssh --enable-libtheora --enable-libtwolame --enable-libvidstab --enable-libvorbis --enable-libvpx --enable-libwebp --enable-libx265 --enable-libxml2 --enable-libxvid --enable-libzimg --enable-libzmq --enable-libzvbi --enable-lv2 --enable-omx --enable-openal --enable-opencl --enable-opengl --enable-sdl2 --enable-pocketsphinx --enable-librsvg --enable-libmfx --enable-libdc1394 --enable-libdrm --enable-libiec61883 --enable-chromaprint --enable-frei0r --enable-libx264 --enable-shared\n",
      "  libavutil      56. 70.100 / 56. 70.100\n",
      "  libavcodec     58.134.100 / 58.134.100\n",
      "  libavformat    58. 76.100 / 58. 76.100\n",
      "  libavdevice    58. 13.100 / 58. 13.100\n",
      "  libavfilter     7.110.100 /  7.110.100\n",
      "  libswscale      5.  9.100 /  5.  9.100\n",
      "  libswresample   3.  9.100 /  3.  9.100\n",
      "  libpostproc    55.  9.100 / 55.  9.100\n",
      "[libdav1d @ 0x5fc4d24f1540] libdav1d 0.9.2\n",
      "Input #0, matroska,webm, from 'video/2.webm':\n",
      "  Metadata:\n",
      "    COMPATIBLE_BRANDS: iso6av01mp41\n",
      "    MAJOR_BRAND     : dash\n",
      "    MINOR_VERSION   : 0\n",
      "    ENCODER         : Lavf58.76.100\n",
      "  Duration: 01:27:06.02, start: -0.007000, bitrate: 1014 kb/s\n",
      "  Stream #0:0: Video: av1 (Main), yuv420p(tv, bt709), 1280x720 [SAR 1:1 DAR 16:9], 29.97 fps, 29.97 tbr, 1k tbn, 1k tbc (default)\n",
      "    Metadata:\n",
      "      HANDLER_NAME    : ISO Media file produced by Google Inc.\n",
      "      VENDOR_ID       : [0][0][0][0]\n",
      "      DURATION        : 01:27:05.987000000\n",
      "  Stream #0:1(eng): Audio: opus, 48000 Hz, stereo, fltp (default)\n",
      "    Metadata:\n",
      "      DURATION        : 01:27:06.021000000\n",
      "[libdav1d @ 0x5fc4d2546f80] libdav1d 0.9.2\n",
      "Stream mapping:\n",
      "  Stream #0:0 -> #0:0 (av1 (libdav1d) -> h264 (h264_nvenc))\n",
      "  Stream #0:1 -> #0:1 (opus (native) -> aac (native))\n",
      "Press [q] to stop, [?] for help\n",
      "Output #0, mp4, to 'video/3.mp4':\n",
      "  Metadata:\n",
      "    COMPATIBLE_BRANDS: iso6av01mp41\n",
      "    MAJOR_BRAND     : dash\n",
      "    MINOR_VERSION   : 0\n",
      "    encoder         : Lavf58.76.100\n",
      "  Stream #0:0: Video: h264 (Main) (avc1 / 0x31637661), yuv420p(tv, bt709, progressive), 1280x720 [SAR 1:1 DAR 16:9], q=2-31, 29.97 fps, 30k tbn (default)\n",
      "    Metadata:\n",
      "      HANDLER_NAME    : ISO Media file produced by Google Inc.\n",
      "      VENDOR_ID       : [0][0][0][0]\n",
      "      DURATION        : 01:27:05.987000000\n",
      "      encoder         : Lavc58.134.100 h264_nvenc\n",
      "    Side data:\n",
      "      cpb: bitrate max/min/avg: 0/0/0 buffer size: 4000000 vbv_delay: N/A\n",
      "  Stream #0:1(eng): Audio: aac (LC) (mp4a / 0x6134706D), 48000 Hz, stereo, fltp, 128 kb/s (default)\n",
      "    Metadata:\n",
      "      DURATION        : 01:27:06.021000000\n",
      "      encoder         : Lavc58.134.100 aac\n",
      "frame=72210 fps=922 q=16.0 Lsize= 1144952kB time=00:40:09.54 bitrate=3892.6kbits/s speed=30.8x    \n",
      "video:1104875kB audio:37768kB subtitle:0kB other streams:0kB global headers:0kB muxing overhead: 0.202148%\n"
     ]
    },
    {
     "ename": "KeyboardInterrupt",
     "evalue": "",
     "output_type": "error",
     "traceback": [
      "\u001b[0;31m---------------------------------------------------------------------------\u001b[0m",
      "\u001b[0;31mKeyboardInterrupt\u001b[0m                         Traceback (most recent call last)",
      "Cell \u001b[0;32mIn[2], line 26\u001b[0m\n\u001b[1;32m     23\u001b[0m         \u001b[38;5;28mprint\u001b[39m(\u001b[38;5;124m\"\u001b[39m\u001b[38;5;124mCheck if NVIDIA drivers and FFmpeg with NVENC support are installed.\u001b[39m\u001b[38;5;124m\"\u001b[39m)\n\u001b[1;32m     25\u001b[0m \u001b[38;5;66;03m# Run it\u001b[39;00m\n\u001b[0;32m---> 26\u001b[0m \u001b[43mconvert_webm_to_mp4_gpu\u001b[49m\u001b[43m(\u001b[49m\u001b[38;5;124;43m'\u001b[39;49m\u001b[38;5;124;43mvideo/2.webm\u001b[39;49m\u001b[38;5;124;43m'\u001b[39;49m\u001b[43m,\u001b[49m\u001b[43m \u001b[49m\u001b[38;5;124;43m'\u001b[39;49m\u001b[38;5;124;43mvideo/3.mp4\u001b[39;49m\u001b[38;5;124;43m'\u001b[39;49m\u001b[43m)\u001b[49m\n",
      "Cell \u001b[0;32mIn[2], line 19\u001b[0m, in \u001b[0;36mconvert_webm_to_mp4_gpu\u001b[0;34m(input_file, output_file)\u001b[0m\n\u001b[1;32m     17\u001b[0m \u001b[38;5;28;01mtry\u001b[39;00m:\n\u001b[1;32m     18\u001b[0m     \u001b[38;5;28mprint\u001b[39m(\u001b[38;5;124m\"\u001b[39m\u001b[38;5;124mStarting GPU-accelerated conversion...\u001b[39m\u001b[38;5;124m\"\u001b[39m)\n\u001b[0;32m---> 19\u001b[0m     \u001b[43msubprocess\u001b[49m\u001b[38;5;241;43m.\u001b[39;49m\u001b[43mrun\u001b[49m\u001b[43m(\u001b[49m\u001b[43mcommand\u001b[49m\u001b[43m,\u001b[49m\u001b[43m \u001b[49m\u001b[43mcheck\u001b[49m\u001b[38;5;241;43m=\u001b[39;49m\u001b[38;5;28;43;01mTrue\u001b[39;49;00m\u001b[43m)\u001b[49m\n\u001b[1;32m     20\u001b[0m     \u001b[38;5;28mprint\u001b[39m(\u001b[38;5;124mf\u001b[39m\u001b[38;5;124m\"\u001b[39m\u001b[38;5;124mDone! Saved to: \u001b[39m\u001b[38;5;132;01m{\u001b[39;00moutput_file\u001b[38;5;132;01m}\u001b[39;00m\u001b[38;5;124m\"\u001b[39m)\n\u001b[1;32m     21\u001b[0m \u001b[38;5;28;01mexcept\u001b[39;00m subprocess\u001b[38;5;241m.\u001b[39mCalledProcessError \u001b[38;5;28;01mas\u001b[39;00m e:\n",
      "File \u001b[0;32m~/miniconda3/envs/tf/lib/python3.10/subprocess.py:505\u001b[0m, in \u001b[0;36mrun\u001b[0;34m(input, capture_output, timeout, check, *popenargs, **kwargs)\u001b[0m\n\u001b[1;32m    503\u001b[0m \u001b[38;5;28;01mwith\u001b[39;00m Popen(\u001b[38;5;241m*\u001b[39mpopenargs, \u001b[38;5;241m*\u001b[39m\u001b[38;5;241m*\u001b[39mkwargs) \u001b[38;5;28;01mas\u001b[39;00m process:\n\u001b[1;32m    504\u001b[0m     \u001b[38;5;28;01mtry\u001b[39;00m:\n\u001b[0;32m--> 505\u001b[0m         stdout, stderr \u001b[38;5;241m=\u001b[39m \u001b[43mprocess\u001b[49m\u001b[38;5;241;43m.\u001b[39;49m\u001b[43mcommunicate\u001b[49m\u001b[43m(\u001b[49m\u001b[38;5;28;43minput\u001b[39;49m\u001b[43m,\u001b[49m\u001b[43m \u001b[49m\u001b[43mtimeout\u001b[49m\u001b[38;5;241;43m=\u001b[39;49m\u001b[43mtimeout\u001b[49m\u001b[43m)\u001b[49m\n\u001b[1;32m    506\u001b[0m     \u001b[38;5;28;01mexcept\u001b[39;00m TimeoutExpired \u001b[38;5;28;01mas\u001b[39;00m exc:\n\u001b[1;32m    507\u001b[0m         process\u001b[38;5;241m.\u001b[39mkill()\n",
      "File \u001b[0;32m~/miniconda3/envs/tf/lib/python3.10/subprocess.py:1146\u001b[0m, in \u001b[0;36mPopen.communicate\u001b[0;34m(self, input, timeout)\u001b[0m\n\u001b[1;32m   1144\u001b[0m         stderr \u001b[38;5;241m=\u001b[39m \u001b[38;5;28mself\u001b[39m\u001b[38;5;241m.\u001b[39mstderr\u001b[38;5;241m.\u001b[39mread()\n\u001b[1;32m   1145\u001b[0m         \u001b[38;5;28mself\u001b[39m\u001b[38;5;241m.\u001b[39mstderr\u001b[38;5;241m.\u001b[39mclose()\n\u001b[0;32m-> 1146\u001b[0m     \u001b[38;5;28;43mself\u001b[39;49m\u001b[38;5;241;43m.\u001b[39;49m\u001b[43mwait\u001b[49m\u001b[43m(\u001b[49m\u001b[43m)\u001b[49m\n\u001b[1;32m   1147\u001b[0m \u001b[38;5;28;01melse\u001b[39;00m:\n\u001b[1;32m   1148\u001b[0m     \u001b[38;5;28;01mif\u001b[39;00m timeout \u001b[38;5;129;01mis\u001b[39;00m \u001b[38;5;129;01mnot\u001b[39;00m \u001b[38;5;28;01mNone\u001b[39;00m:\n",
      "File \u001b[0;32m~/miniconda3/envs/tf/lib/python3.10/subprocess.py:1209\u001b[0m, in \u001b[0;36mPopen.wait\u001b[0;34m(self, timeout)\u001b[0m\n\u001b[1;32m   1207\u001b[0m     endtime \u001b[38;5;241m=\u001b[39m _time() \u001b[38;5;241m+\u001b[39m timeout\n\u001b[1;32m   1208\u001b[0m \u001b[38;5;28;01mtry\u001b[39;00m:\n\u001b[0;32m-> 1209\u001b[0m     \u001b[38;5;28;01mreturn\u001b[39;00m \u001b[38;5;28;43mself\u001b[39;49m\u001b[38;5;241;43m.\u001b[39;49m\u001b[43m_wait\u001b[49m\u001b[43m(\u001b[49m\u001b[43mtimeout\u001b[49m\u001b[38;5;241;43m=\u001b[39;49m\u001b[43mtimeout\u001b[49m\u001b[43m)\u001b[49m\n\u001b[1;32m   1210\u001b[0m \u001b[38;5;28;01mexcept\u001b[39;00m \u001b[38;5;167;01mKeyboardInterrupt\u001b[39;00m:\n\u001b[1;32m   1211\u001b[0m     \u001b[38;5;66;03m# https://bugs.python.org/issue25942\u001b[39;00m\n\u001b[1;32m   1212\u001b[0m     \u001b[38;5;66;03m# The first keyboard interrupt waits briefly for the child to\u001b[39;00m\n\u001b[1;32m   1213\u001b[0m     \u001b[38;5;66;03m# exit under the common assumption that it also received the ^C\u001b[39;00m\n\u001b[1;32m   1214\u001b[0m     \u001b[38;5;66;03m# generated SIGINT and will exit rapidly.\u001b[39;00m\n\u001b[1;32m   1215\u001b[0m     \u001b[38;5;28;01mif\u001b[39;00m timeout \u001b[38;5;129;01mis\u001b[39;00m \u001b[38;5;129;01mnot\u001b[39;00m \u001b[38;5;28;01mNone\u001b[39;00m:\n",
      "File \u001b[0;32m~/miniconda3/envs/tf/lib/python3.10/subprocess.py:1959\u001b[0m, in \u001b[0;36mPopen._wait\u001b[0;34m(self, timeout)\u001b[0m\n\u001b[1;32m   1957\u001b[0m \u001b[38;5;28;01mif\u001b[39;00m \u001b[38;5;28mself\u001b[39m\u001b[38;5;241m.\u001b[39mreturncode \u001b[38;5;129;01mis\u001b[39;00m \u001b[38;5;129;01mnot\u001b[39;00m \u001b[38;5;28;01mNone\u001b[39;00m:\n\u001b[1;32m   1958\u001b[0m     \u001b[38;5;28;01mbreak\u001b[39;00m  \u001b[38;5;66;03m# Another thread waited.\u001b[39;00m\n\u001b[0;32m-> 1959\u001b[0m (pid, sts) \u001b[38;5;241m=\u001b[39m \u001b[38;5;28;43mself\u001b[39;49m\u001b[38;5;241;43m.\u001b[39;49m\u001b[43m_try_wait\u001b[49m\u001b[43m(\u001b[49m\u001b[38;5;241;43m0\u001b[39;49m\u001b[43m)\u001b[49m\n\u001b[1;32m   1960\u001b[0m \u001b[38;5;66;03m# Check the pid and loop as waitpid has been known to\u001b[39;00m\n\u001b[1;32m   1961\u001b[0m \u001b[38;5;66;03m# return 0 even without WNOHANG in odd situations.\u001b[39;00m\n\u001b[1;32m   1962\u001b[0m \u001b[38;5;66;03m# http://bugs.python.org/issue14396.\u001b[39;00m\n\u001b[1;32m   1963\u001b[0m \u001b[38;5;28;01mif\u001b[39;00m pid \u001b[38;5;241m==\u001b[39m \u001b[38;5;28mself\u001b[39m\u001b[38;5;241m.\u001b[39mpid:\n",
      "File \u001b[0;32m~/miniconda3/envs/tf/lib/python3.10/subprocess.py:1917\u001b[0m, in \u001b[0;36mPopen._try_wait\u001b[0;34m(self, wait_flags)\u001b[0m\n\u001b[1;32m   1915\u001b[0m \u001b[38;5;250m\u001b[39m\u001b[38;5;124;03m\"\"\"All callers to this function MUST hold self._waitpid_lock.\"\"\"\u001b[39;00m\n\u001b[1;32m   1916\u001b[0m \u001b[38;5;28;01mtry\u001b[39;00m:\n\u001b[0;32m-> 1917\u001b[0m     (pid, sts) \u001b[38;5;241m=\u001b[39m \u001b[43mos\u001b[49m\u001b[38;5;241;43m.\u001b[39;49m\u001b[43mwaitpid\u001b[49m\u001b[43m(\u001b[49m\u001b[38;5;28;43mself\u001b[39;49m\u001b[38;5;241;43m.\u001b[39;49m\u001b[43mpid\u001b[49m\u001b[43m,\u001b[49m\u001b[43m \u001b[49m\u001b[43mwait_flags\u001b[49m\u001b[43m)\u001b[49m\n\u001b[1;32m   1918\u001b[0m \u001b[38;5;28;01mexcept\u001b[39;00m \u001b[38;5;167;01mChildProcessError\u001b[39;00m:\n\u001b[1;32m   1919\u001b[0m     \u001b[38;5;66;03m# This happens if SIGCLD is set to be ignored or waiting\u001b[39;00m\n\u001b[1;32m   1920\u001b[0m     \u001b[38;5;66;03m# for child processes has otherwise been disabled for our\u001b[39;00m\n\u001b[1;32m   1921\u001b[0m     \u001b[38;5;66;03m# process.  This child is dead, we can't get the status.\u001b[39;00m\n\u001b[1;32m   1922\u001b[0m     pid \u001b[38;5;241m=\u001b[39m \u001b[38;5;28mself\u001b[39m\u001b[38;5;241m.\u001b[39mpid\n",
      "\u001b[0;31mKeyboardInterrupt\u001b[0m: "
     ]
    }
   ],
   "source": [
    "import subprocess\n",
    "\n",
    "def convert_webm_to_mp4_gpu(input_file, output_file):\n",
    "    command = [\n",
    "        'ffmpeg',\n",
    "        '-hwaccel', 'cuda',           # Use CUDA to help decode the input\n",
    "        '-i', input_file, \n",
    "        '-c:v', 'h264_nvenc',         # The NVIDIA Hardware Encoder\n",
    "        '-preset', 'p4',              # Performance preset (p1=fastest, p7=slowest/best)\n",
    "        '-rc', 'vbr',                 # Variable bit rate\n",
    "        '-cq', '24',                  # Quality (Constant Quality mode)\n",
    "        '-c:a', 'aac', \n",
    "        output_file,\n",
    "        '-y'                          # Overwrite if exists\n",
    "    ]\n",
    "    \n",
    "    try:\n",
    "        print(\"Starting GPU-accelerated conversion...\")\n",
    "        subprocess.run(command, check=True)\n",
    "        print(f\"Done! Saved to: {output_file}\")\n",
    "    except subprocess.CalledProcessError as e:\n",
    "        print(f\"GPU conversion failed. Error: {e}\")\n",
    "        print(\"Check if NVIDIA drivers and FFmpeg with NVENC support are installed.\")\n",
    "\n",
    "# Run it\n",
    "convert_webm_to_mp4_gpu('video/2.webm', 'video/3.mp4')"
   ]
  },
  {
   "cell_type": "code",
   "execution_count": null,
   "id": "28303642-2484-43dd-8877-d282a5a520ee",
   "metadata": {},
   "outputs": [],
   "source": []
  }
 ],
 "metadata": {
  "kernelspec": {
   "display_name": "python3",
   "language": "python",
   "name": "python3"
  },
  "widgets": {
   "application/vnd.jupyter.widget-state+json": {
    "state": {},
    "version_major": 2,
    "version_minor": 0
   }
  }
 },
 "nbformat": 4,
 "nbformat_minor": 5
}
